<?xml version="1.0" encoding="UTF-8" standalone="no"?>
<!DOCTYPE svg PUBLIC "-//W3C//DTD SVG 1.1//EN" "http://www.w3.org/Graphics/SVG/1.1/DTD/svg11.dtd">
<svg width="100%" height="100%" viewBox="0 0 296 296" version="1.1" xmlns="http://www.w3.org/2000/svg" xmlns:xlink="http://www.w3.org/1999/xlink" xml:space="preserve" xmlns:serif="http://www.serif.com/" style="fill-rule:evenodd;clip-rule:evenodd;stroke-linejoin:round;stroke-miterlimit:2;">
    <path d="M294.626,88.215C292.238,70.449 285.289,54.006 274.527,40.66C264.571,28.314 251.656,19.135 238.162,14.816C228.136,11.615 218.256,9.992 208.788,9.992C184.211,9.992 162.475,20.803 146.641,40.67C129.003,20.516 108.249,10.315 84.829,10.313C75.99,10.313 66.769,11.829 57.421,14.815C43.916,19.135 30.998,28.313 21.039,40.659C10.274,54.004 3.322,70.449 0.934,88.215C-2.924,116.916 5.223,148.223 24.496,178.748C46.774,214.033 83.751,248.637 134.4,281.596C138.389,284.194 143.017,285.567 147.781,285.567C152.545,285.567 157.173,284.194 161.164,281.594C211.81,248.637 248.787,214.033 271.064,178.746C290.335,148.221 298.482,116.916 294.626,88.215Z" style="fill:rgb(255,99,99);fill-rule:nonzero;"/>
</svg>
